<?xml version="1.0" encoding="UTF-8"?>
<!DOCTYPE svg PUBLIC "-//W3C//DTD SVG 1.1//EN" "http://www.w3.org/Graphics/SVG/1.1/DTD/svg11.dtd">
<svg xmlns="http://www.w3.org/2000/svg" version="1.1" width="497px" height="520px" style="shape-rendering:geometricPrecision; text-rendering:geometricPrecision; image-rendering:optimizeQuality; fill-rule:evenodd; clip-rule:evenodd" xmlns:xlink="http://www.w3.org/1999/xlink">
<g><path style="opacity:1" fill="#f15c27" d="M 249.5,-0.5 C 262.167,-0.5 274.833,-0.5 287.5,-0.5C 295.34,1.01024 303.34,2.34357 311.5,3.5C 315.515,5.37319 319.849,6.37319 324.5,6.5C 369.12,18.414 406.953,41.7473 438,76.5C 441.662,80.4996 444.829,84.8329 447.5,89.5C 448.623,92.4352 449.623,95.4352 450.5,98.5C 451.842,100.005 453.508,100.672 455.5,100.5C 457.669,102.34 459.002,104.674 459.5,107.5C 459.539,108.583 459.873,109.583 460.5,110.5C 459.284,111.096 457.951,111.263 456.5,111C 460.01,114.833 463.51,118.667 467,122.5C 467.622,126.612 468.622,130.612 470,134.5C 470.998,131.972 471.831,131.972 472.5,134.5C 471.669,136.473 471.502,138.473 472,140.5C 472.605,138.519 473.605,138.185 475,139.5C 475.663,143.035 477.163,146.035 479.5,148.5C 481.529,154.917 483.529,161.251 485.5,167.5C 486.04,170.865 486.706,174.198 487.5,177.5C 490.18,200.061 491.18,222.728 490.5,245.5C 490.147,253.579 489.147,261.579 487.5,269.5C 485.882,273.689 484.882,278.022 484.5,282.5C 482.06,286.817 480.393,291.483 479.5,296.5C 476.413,305.766 472.747,314.766 468.5,323.5C 465.607,325.748 463.94,328.748 463.5,332.5C 461.103,336.952 458.437,341.285 455.5,345.5C 449.991,352.657 444.657,359.991 439.5,367.5C 436.041,370.415 433.041,373.748 430.5,377.5C 427.5,378.5 425.5,380.5 424.5,383.5C 399.972,405.95 371.972,423.116 340.5,435C 333.356,436.724 326.356,438.557 319.5,440.5C 313.905,440.754 308.572,441.754 303.5,443.5C 298.878,443.156 294.545,443.823 290.5,445.5C 286.833,445.5 283.167,445.5 279.5,445.5C 266.811,445.708 254.144,445.374 241.5,444.5C 240.833,444.5 240.167,444.5 239.5,444.5C 237.393,443.532 235.059,443.198 232.5,443.5C 224.625,440.091 216.291,438.091 207.5,437.5C 199.891,435.963 192.558,433.63 185.5,430.5C 178.616,427.314 171.616,424.314 164.5,421.5C 155.874,415.893 147.207,410.226 138.5,404.5C 141.266,402.822 143.933,401.156 146.5,399.5C 192.588,372.652 234.088,339.652 271,300.5C 280.437,289.246 289.604,277.912 298.5,266.5C 301.03,263.861 303.696,261.194 306.5,258.5C 307.466,256.604 307.799,254.604 307.5,252.5C 312.009,245.499 315.842,238.165 319,230.5C 321.486,221.877 323.653,213.211 325.5,204.5C 327.177,200.455 327.844,196.122 327.5,191.5C 328.5,191.5 329.5,191.5 330.5,191.5C 330.5,192.833 330.5,194.167 330.5,195.5C 335.797,196.275 341.13,196.608 346.5,196.5C 349.314,197.165 352.314,197.498 355.5,197.5C 359.797,197.722 363.797,197.055 367.5,195.5C 369.216,195.371 370.883,195.038 372.5,194.5C 374.967,194.245 376.967,193.245 378.5,191.5C 396.841,182.13 407.508,167.13 410.5,146.5C 411.643,143.024 411.81,139.358 411,135.5C 410.638,130.813 409.471,126.48 407.5,122.5C 404.608,114.912 400.275,108.079 394.5,102C 386.622,95.0613 377.622,90.228 367.5,87.5C 359.479,84.9841 351.479,84.9841 343.5,87.5C 338.921,87.4703 334.921,88.8037 331.5,91.5C 328.9,92.4676 326.566,93.8009 324.5,95.5C 319.691,98.2456 315.691,101.912 312.5,106.5C 310.025,108.77 308.025,111.437 306.5,114.5C 304.461,115.911 303.461,117.911 303.5,120.5C 299.547,130.604 298.547,140.937 300.5,151.5C 300.565,154.428 301.232,157.095 302.5,159.5C 296.347,160.328 290.013,160.828 283.5,161C 279.244,161.701 275.244,162.868 271.5,164.5C 265.686,165.415 260.353,167.415 255.5,170.5C 243.723,177.229 232.39,184.729 221.5,193C 191.903,218.595 165.07,246.762 141,277.5C 126.618,291.714 112.452,306.048 98.5,320.5C 99.3333,320.833 100.167,321.167 101,321.5C 105.125,320.508 109.291,319.841 113.5,319.5C 122.081,318.895 130.414,317.562 138.5,315.5C 143.547,315.078 148.547,314.411 153.5,313.5C 156.829,313.785 159.829,313.118 162.5,311.5C 164.167,311.5 165.833,311.5 167.5,311.5C 168.978,311.238 170.311,311.571 171.5,312.5C 171.333,312.833 171.167,313.167 171,313.5C 162.296,321.37 154.129,329.703 146.5,338.5C 144.806,339.527 143.473,340.861 142.5,342.5C 139.097,344.9 136.43,347.9 134.5,351.5C 133.761,351.369 133.094,351.536 132.5,352C 125.602,359.66 118.602,367.16 111.5,374.5C 110.102,376.109 108.435,376.942 106.5,377C 99.0602,368.743 92.0602,360.243 85.5,351.5C 85.3775,348.708 84.0442,346.708 81.5,345.5C 63.7917,318.071 52.4583,288.071 47.5,255.5C 47.7204,250.9 47.0538,246.567 45.5,242.5C 45.5,232.5 45.5,222.5 45.5,212.5C 45.3176,204.378 45.9843,196.378 47.5,188.5C 48.1174,188.389 48.6174,188.056 49,187.5C 49.498,184.518 49.6646,181.518 49.5,178.5C 49.916,175.417 50.5826,172.417 51.5,169.5C 53.924,164.153 55.5907,158.487 56.5,152.5C 56.5,152.167 56.5,151.833 56.5,151.5C 59.0102,145.985 61.3436,140.319 63.5,134.5C 66.1648,132.165 67.4982,129.165 67.5,125.5C 72.6464,115.207 78.3131,105.207 84.5,95.5C 110.617,58.7092 144.617,32.0425 186.5,15.5C 193.655,13.4117 200.655,11.0783 207.5,8.5C 207.842,7.66175 208.508,7.32842 209.5,7.5C 212.152,7.59047 214.485,6.92381 216.5,5.5C 225.95,3.80739 235.284,2.14072 244.5,0.5C 246.415,0.784479 248.081,0.451145 249.5,-0.5 Z"/></g>
<g><path style="opacity:1" fill="#fbd8c5" d="M 244.5,0.5 C 235.284,2.14072 225.95,3.80739 216.5,5.5C 225.309,1.7191 234.642,0.0524305 244.5,0.5 Z"/></g>
<g><path style="opacity:1" fill="#fbc9b2" d="M 311.5,3.5 C 316.312,2.96451 320.645,3.96451 324.5,6.5C 319.849,6.37319 315.515,5.37319 311.5,3.5 Z"/></g>
<g><path style="opacity:1" fill="#ea9479" d="M 216.5,5.5 C 214.485,6.92381 212.152,7.59047 209.5,7.5C 211.515,6.07619 213.848,5.40953 216.5,5.5 Z"/></g>
<g><path style="opacity:1" fill="#ea845e" d="M 207.5,8.5 C 200.655,11.0783 193.655,13.4117 186.5,15.5C 192.957,11.7921 199.957,9.45872 207.5,8.5 Z"/></g>
<g><path style="opacity:1" fill="#fefefe" d="M 25.5,59.5 C 25.5,66.1667 25.5,72.8333 25.5,79.5C 18.8333,79.5 12.1667,79.5 5.5,79.5C 5.17033,73.1318 5.50367,66.7985 6.5,60.5C 12.7734,59.5404 19.1067,59.2071 25.5,59.5 Z"/></g>
<g><path style="opacity:1" fill="#eeeeee" d="M 25.5,59.5 C 32.1667,59.5 38.8333,59.5 45.5,59.5C 45.5,66.1667 45.5,72.8333 45.5,79.5C 38.8333,79.5 32.1667,79.5 25.5,79.5C 25.5,72.8333 25.5,66.1667 25.5,59.5 Z"/></g>
<g><path style="opacity:1" fill="#f8f8f8" d="M -0.5,-0.5 C 14.8333,-0.5 30.1667,-0.5 45.5,-0.5C 45.1703,5.86818 45.5037,12.2015 46.5,18.5C 52.7734,19.4596 59.1067,19.7929 65.5,19.5C 65.5,12.8333 65.5,6.16667 65.5,-0.5C 72.1667,-0.5 78.8333,-0.5 85.5,-0.5C 85.1703,5.86818 85.5037,12.2015 86.5,18.5C 92.7734,19.4596 99.1067,19.7929 105.5,19.5C 105.5,12.8333 105.5,6.16667 105.5,-0.5C 153.5,-0.5 201.5,-0.5 249.5,-0.5C 248.081,0.451145 246.415,0.784479 244.5,0.5C 234.642,0.0524305 225.309,1.7191 216.5,5.5C 213.848,5.40953 211.515,6.07619 209.5,7.5C 208.508,7.32842 207.842,7.66175 207.5,8.5C 199.957,9.45872 192.957,11.7921 186.5,15.5C 144.617,32.0425 110.617,58.7092 84.5,95.5C 82.0885,95.8633 80.5885,94.8633 80,92.5C 80.2592,95.8045 79.5925,99.1378 78,102.5C 77.5172,101.552 77.3505,100.552 77.5,99.5C 73.5,99.5 69.5,99.5 65.5,99.5C 65.5,92.8333 65.5,86.1667 65.5,79.5C 58.8333,79.5 52.1667,79.5 45.5,79.5C 45.5,72.8333 45.5,66.1667 45.5,59.5C 38.8333,59.5 32.1667,59.5 25.5,59.5C 25.5,52.8333 25.5,46.1667 25.5,39.5C 18.8333,39.5 12.1667,39.5 5.5,39.5C 5.5,46.1667 5.5,52.8333 5.5,59.5C 3.5,59.5 1.5,59.5 -0.5,59.5C -0.5,39.5 -0.5,19.5 -0.5,-0.5 Z"/></g>
<g><path style="opacity:1" fill="#ededed" d="M 65.5,39.5 C 65.5,46.1667 65.5,52.8333 65.5,59.5C 59.1067,59.7929 52.7734,59.4596 46.5,58.5C 45.5037,52.2015 45.1703,45.8682 45.5,39.5C 52.1667,39.5 58.8333,39.5 65.5,39.5 Z"/></g>
<g><path style="opacity:1" fill="#eeeeee" d="M 65.5,19.5 C 72.1667,19.5 78.8333,19.5 85.5,19.5C 85.5,26.1667 85.5,32.8333 85.5,39.5C 78.8333,39.5 72.1667,39.5 65.5,39.5C 65.5,32.8333 65.5,26.1667 65.5,19.5 Z"/></g>
<g><path style="opacity:1" fill="#ededed" d="M 85.5,-0.5 C 92.1667,-0.5 98.8333,-0.5 105.5,-0.5C 105.5,6.16667 105.5,12.8333 105.5,19.5C 99.1067,19.7929 92.7734,19.4596 86.5,18.5C 85.5037,12.2015 85.1703,5.86818 85.5,-0.5 Z"/></g>
<g><path style="opacity:1" fill="#ededed" d="M 45.5,-0.5 C 52.1667,-0.5 58.8333,-0.5 65.5,-0.5C 65.5,6.16667 65.5,12.8333 65.5,19.5C 59.1067,19.7929 52.7734,19.4596 46.5,18.5C 45.5037,12.2015 45.1703,5.86818 45.5,-0.5 Z"/></g>
<g><path style="opacity:1" fill="#ededed" d="M 45.5,79.5 C 52.1667,79.5 58.8333,79.5 65.5,79.5C 65.5,86.1667 65.5,92.8333 65.5,99.5C 59.1067,99.7929 52.7734,99.4596 46.5,98.5C 45.5037,92.2015 45.1703,85.8682 45.5,79.5 Z"/></g>
<g><path style="opacity:1" fill="#faccb5" d="M 367.5,87.5 C 359.5,87.5 351.5,87.5 343.5,87.5C 351.479,84.9841 359.479,84.9841 367.5,87.5 Z"/></g>
<g><path style="opacity:1" fill="#f7b79d" d="M 343.5,87.5 C 339.659,89.0026 335.659,90.3359 331.5,91.5C 334.921,88.8037 338.921,87.4703 343.5,87.5 Z"/></g>
<g><path style="opacity:1" fill="#f9f7f3" d="M 343.5,87.5 C 351.5,87.5 359.5,87.5 367.5,87.5C 377.622,90.228 386.622,95.0613 394.5,102C 400.275,108.079 404.608,114.912 407.5,122.5C 409.247,130.398 410.247,138.398 410.5,146.5C 407.508,167.13 396.841,182.13 378.5,191.5C 376.033,191.755 374.033,192.755 372.5,194.5C 370.883,195.038 369.216,195.371 367.5,195.5C 360.524,196.232 353.524,196.565 346.5,196.5C 341.191,195.048 335.858,193.381 330.5,191.5C 329.713,189.896 328.38,189.229 326.5,189.5C 326.497,194.527 326.164,199.527 325.5,204.5C 323.653,213.211 321.486,221.877 319,230.5C 315.842,238.165 312.009,245.499 307.5,252.5C 304.008,256.809 301.008,261.476 298.5,266.5C 289.604,277.912 280.437,289.246 271,300.5C 234.088,339.652 192.588,372.652 146.5,399.5C 147.406,397.583 148.739,395.917 150.5,394.5C 149.051,393.828 147.718,393.161 146.5,392.5C 168.677,377.909 190.344,362.576 211.5,346.5C 212.833,344.833 214.167,343.167 215.5,341.5C 214.23,340.712 213.23,339.712 212.5,338.5C 212.735,337.903 213.235,337.57 214,337.5C 215.136,338.783 216.469,339.783 218,340.5C 219.749,340.252 220.582,339.252 220.5,337.5C 221.552,337.649 222.552,337.483 223.5,337C 244.35,318.625 263.85,298.791 282,277.5C 290.128,266.547 297.628,255.214 304.5,243.5C 307.909,237.183 310.909,230.683 313.5,224C 313.333,223.5 313.167,223 313,222.5C 310.339,225.993 307.506,229.326 304.5,232.5C 304.674,230.139 305.007,227.806 305.5,225.5C 304.5,225.5 303.5,225.5 302.5,225.5C 308.721,218.079 314.221,210.079 319,201.5C 320.299,195.881 320.632,190.214 320,184.5C 318,182.5 316,180.5 314,178.5C 273.993,219.34 233.826,260.007 193.5,300.5C 191.807,299.525 190.307,298.192 189,296.5C 188.184,297.823 187.017,298.489 185.5,298.5C 197.651,285.836 210.151,273.502 223,261.5C 223.464,260.906 223.631,260.239 223.5,259.5C 225.71,259.106 227.043,257.773 227.5,255.5C 228.5,254.833 229.5,254.167 230.5,253.5C 234.212,250.789 237.212,247.456 239.5,243.5C 241.172,242.13 242.839,240.797 244.5,239.5C 247.833,236.833 250.833,233.833 253.5,230.5C 270.997,211.498 289.164,192.832 308,174.5C 309.148,170.453 307.648,168.453 303.5,168.5C 300.518,167.835 297.352,167.502 294,167.5C 288.91,167.344 284.077,168.01 279.5,169.5C 272.74,170.31 266.407,172.31 260.5,175.5C 257.669,176.079 255.336,177.412 253.5,179.5C 251.517,180.471 249.517,181.471 247.5,182.5C 245.91,182.372 244.577,181.705 243.5,180.5C 246.202,178.653 249.202,177.487 252.5,177C 253.337,175.989 253.67,174.822 253.5,173.5C 254.873,173.657 256.207,173.49 257.5,173C 256.244,172.583 255.577,171.75 255.5,170.5C 260.353,167.415 265.686,165.415 271.5,164.5C 282.049,162.427 292.716,161.094 303.5,160.5C 303.376,159.893 303.043,159.56 302.5,159.5C 302.889,156.447 302.223,153.78 300.5,151.5C 298.547,140.937 299.547,130.604 303.5,120.5C 305.008,118.819 306.008,116.819 306.5,114.5C 308.025,111.437 310.025,108.77 312.5,106.5C 315.684,104.158 319.017,101.992 322.5,100C 324.037,98.8904 324.703,97.3904 324.5,95.5C 326.566,93.8009 328.9,92.4676 331.5,91.5C 335.659,90.3359 339.659,89.0026 343.5,87.5 Z"/></g>
<g><path style="opacity:1" fill="#999999" d="M 351.5,92.5 C 363.244,92.2665 373.911,95.4332 383.5,102C 367.792,117.374 352.458,133.041 337.5,149C 343.414,154.237 349.414,159.57 355.5,165C 362.759,170.25 369.759,175.916 376.5,182C 377.5,182.333 378.5,182.667 379.5,183C 361.413,193.425 343.747,192.758 326.5,181C 307.03,164.624 301.864,144.457 311,120.5C 316.946,109.221 325.78,101.054 337.5,96C 342.317,94.9293 346.984,93.7627 351.5,92.5 Z"/></g>
<g><path style="opacity:1" fill="#eb7045" d="M 447.5,89.5 C 448.794,90.2899 449.961,91.2899 451,92.5C 452.747,95.0672 454.247,97.7338 455.5,100.5C 453.508,100.672 451.842,100.005 450.5,98.5C 449.623,95.4352 448.623,92.4352 447.5,89.5 Z"/></g>
<g><path style="opacity:1" fill="#fde3cc" d="M 324.5,95.5 C 324.703,97.3904 324.037,98.8904 322.5,100C 319.017,101.992 315.684,104.158 312.5,106.5C 315.691,101.912 319.691,98.2456 324.5,95.5 Z"/></g>
<g><path style="opacity:1" fill="#fefefe" d="M 25.5,79.5 C 32.1667,79.5 38.8333,79.5 45.5,79.5C 45.1703,85.8682 45.5037,92.2015 46.5,98.5C 52.7734,99.4596 59.1067,99.7929 65.5,99.5C 65.5,106.167 65.5,112.833 65.5,119.5C 58.8333,119.5 52.1667,119.5 45.5,119.5C 45.5,112.833 45.5,106.167 45.5,99.5C 38.8333,99.5 32.1667,99.5 25.5,99.5C 25.5,92.8333 25.5,86.1667 25.5,79.5 Z"/></g>
<g><path style="opacity:1" fill="#f5f5f4" d="M 287.5,-0.5 C 326.833,-0.5 366.167,-0.5 405.5,-0.5C 405.17,5.86818 405.504,12.2015 406.5,18.5C 412.773,19.4596 419.107,19.7929 425.5,19.5C 425.5,12.8333 425.5,6.16667 425.5,-0.5C 449.167,-0.5 472.833,-0.5 496.5,-0.5C 496.5,79.5 496.5,159.5 496.5,239.5C 495.669,226.34 495.169,213.006 495,199.5C 494.833,215.844 494.333,232.177 493.5,248.5C 493.16,229.149 492.16,210.149 490.5,191.5C 489.79,186.78 488.79,182.113 487.5,177.5C 486.706,174.198 486.04,170.865 485.5,167.5C 484.97,160.977 483.803,154.644 482,148.5C 481.331,146.41 480.164,144.743 478.5,143.5C 473.487,131.978 467.987,120.645 462,109.5C 461.292,108.619 460.458,107.953 459.5,107.5C 459.002,104.674 457.669,102.34 455.5,100.5C 454.247,97.7338 452.747,95.0672 451,92.5C 449.961,91.2899 448.794,90.2899 447.5,89.5C 444.829,84.8329 441.662,80.4996 438,76.5C 406.953,41.7473 369.12,18.414 324.5,6.5C 320.645,3.96451 316.312,2.96451 311.5,3.5C 303.34,2.34357 295.34,1.01024 287.5,-0.5 Z"/></g>
<g><path style="opacity:1" fill="#fefefe" d="M 425.5,39.5 C 432.167,39.5 438.833,39.5 445.5,39.5C 445.5,46.1667 445.5,52.8333 445.5,59.5C 438.833,59.5 432.167,59.5 425.5,59.5C 425.5,52.8333 425.5,46.1667 425.5,39.5 Z"/></g>
<g><path style="opacity:1" fill="#eeeeee" d="M 425.5,19.5 C 432.167,19.5 438.833,19.5 445.5,19.5C 445.5,26.1667 445.5,32.8333 445.5,39.5C 438.833,39.5 432.167,39.5 425.5,39.5C 425.5,32.8333 425.5,26.1667 425.5,19.5 Z"/></g>
<g><path style="opacity:1" fill="#ededed" d="M 405.5,-0.5 C 412.167,-0.5 418.833,-0.5 425.5,-0.5C 425.5,6.16667 425.5,12.8333 425.5,19.5C 419.107,19.7929 412.773,19.4596 406.5,18.5C 405.504,12.2015 405.17,5.86818 405.5,-0.5 Z"/></g>
<g><path style="opacity:1" fill="#6a6a6a" d="M 387.5,106.5 C 392.105,108.942 395.605,112.609 398,117.5C 407.763,139.503 404.596,159.336 388.5,177C 387.271,177.781 385.938,178.281 384.5,178.5C 374.833,171 365.167,163.5 355.5,156C 352.86,153.36 350.194,150.694 347.5,148C 361.422,134.581 374.755,120.748 387.5,106.5 Z"/></g>
<g><path style="opacity:1" fill="#e5896a" d="M 306.5,114.5 C 306.008,116.819 305.008,118.819 303.5,120.5C 303.461,117.911 304.461,115.911 306.5,114.5 Z"/></g>
<g><path style="opacity:1" fill="#efedeb" d="M 84.5,95.5 C 78.3131,105.207 72.6464,115.207 67.5,125.5C 65.2576,128.082 63.9243,131.082 63.5,134.5C 61.3436,140.319 59.0102,145.985 56.5,151.5C 56.9419,147.346 57.9419,143.346 59.5,139.5C 55.0983,139.772 50.7649,139.439 46.5,138.5C 45.5037,132.202 45.1703,125.868 45.5,119.5C 52.1667,119.5 58.8333,119.5 65.5,119.5C 65.5,112.833 65.5,106.167 65.5,99.5C 69.5,99.5 73.5,99.5 77.5,99.5C 77.3505,100.552 77.5172,101.552 78,102.5C 79.5925,99.1378 80.2592,95.8045 80,92.5C 80.5885,94.8633 82.0885,95.8633 84.5,95.5 Z"/></g>
<g><path style="opacity:1" fill="#ec9974" d="M 407.5,122.5 C 409.471,126.48 410.638,130.813 411,135.5C 411.81,139.358 411.643,143.024 410.5,146.5C 410.247,138.398 409.247,130.398 407.5,122.5 Z"/></g>
<g><path style="opacity:1" fill="#f08c6a" d="M 67.5,125.5 C 67.4982,129.165 66.1648,132.165 63.5,134.5C 63.9243,131.082 65.2576,128.082 67.5,125.5 Z"/></g>
<g><path style="opacity:1" fill="#ed683b" d="M 459.5,107.5 C 460.458,107.953 461.292,108.619 462,109.5C 467.987,120.645 473.487,131.978 478.5,143.5C 478.629,145.216 478.962,146.883 479.5,148.5C 477.163,146.035 475.663,143.035 475,139.5C 473.605,138.185 472.605,138.519 472,140.5C 471.502,138.473 471.669,136.473 472.5,134.5C 471.831,131.972 470.998,131.972 470,134.5C 468.622,130.612 467.622,126.612 467,122.5C 463.51,118.667 460.01,114.833 456.5,111C 457.951,111.263 459.284,111.096 460.5,110.5C 459.873,109.583 459.539,108.583 459.5,107.5 Z"/></g>
<g><path style="opacity:1" fill="#f6f6f5" d="M 388.5,124.5 C 391.192,125.53 392.692,127.53 393,130.5C 395.589,140.867 394.589,150.867 390,160.5C 388.556,162.155 386.722,162.822 384.5,162.5C 384.579,161.07 384.246,159.736 383.5,158.5C 388.019,148.665 388.686,138.498 385.5,128C 386.071,126.401 387.071,125.234 388.5,124.5 Z"/></g>
<g><path style="opacity:1" fill="#fefefe" d="M 25.5,139.5 C 25.5,146.167 25.5,152.833 25.5,159.5C 18.8333,159.5 12.1667,159.5 5.5,159.5C 5.17033,153.132 5.50367,146.798 6.5,140.5C 12.7734,139.54 19.1067,139.207 25.5,139.5 Z"/></g>
<g><path style="opacity:1" fill="#eeeeee" d="M 25.5,139.5 C 32.1667,139.5 38.8333,139.5 45.5,139.5C 45.5,146.167 45.5,152.833 45.5,159.5C 38.8333,159.5 32.1667,159.5 25.5,159.5C 25.5,152.833 25.5,146.167 25.5,139.5 Z"/></g>
<g><path style="opacity:1" fill="#fcfdfc" d="M 45.5,119.5 C 45.1703,125.868 45.5037,132.202 46.5,138.5C 50.7649,139.439 55.0983,139.772 59.5,139.5C 57.9419,143.346 56.9419,147.346 56.5,151.5C 56.5,151.833 56.5,152.167 56.5,152.5C 54.6804,156.782 53.0137,161.115 51.5,165.5C 50.2702,163.703 49.6036,161.703 49.5,159.5C 48.1667,159.5 46.8333,159.5 45.5,159.5C 45.5,152.833 45.5,146.167 45.5,139.5C 38.8333,139.5 32.1667,139.5 25.5,139.5C 25.5,132.833 25.5,126.167 25.5,119.5C 32.1667,119.5 38.8333,119.5 45.5,119.5 Z"/></g>
<g><path style="opacity:1" fill="#f7d7c9" d="M 478.5,143.5 C 480.164,144.743 481.331,146.41 482,148.5C 483.803,154.644 484.97,160.977 485.5,167.5C 483.529,161.251 481.529,154.917 479.5,148.5C 478.962,146.883 478.629,145.216 478.5,143.5 Z"/></g>
<g><path style="opacity:1" fill="#f7bc9f" d="M 300.5,151.5 C 302.223,153.78 302.889,156.447 302.5,159.5C 301.232,157.095 300.565,154.428 300.5,151.5 Z"/></g>
<g><path style="opacity:1" fill="#ea9270" d="M 56.5,152.5 C 55.5907,158.487 53.924,164.153 51.5,169.5C 51.5,168.167 51.5,166.833 51.5,165.5C 53.0137,161.115 54.6804,156.782 56.5,152.5 Z"/></g>
<g><path style="opacity:1" fill="#facab2" d="M 302.5,159.5 C 303.043,159.56 303.376,159.893 303.5,160.5C 292.716,161.094 282.049,162.427 271.5,164.5C 275.244,162.868 279.244,161.701 283.5,161C 290.013,160.828 296.347,160.328 302.5,159.5 Z"/></g>
<g><path style="opacity:1" fill="#e7aa6c" d="M 303.5,168.5 C 295.483,168.501 287.483,168.834 279.5,169.5C 284.077,168.01 288.91,167.344 294,167.5C 297.352,167.502 300.518,167.835 303.5,168.5 Z"/></g>
<g><path style="opacity:1" fill="#f1b073" d="M 260.5,175.5 C 258.911,178.08 256.578,179.413 253.5,179.5C 255.336,177.412 257.669,176.079 260.5,175.5 Z"/></g>
<g><path style="opacity:1" fill="#ef8f6d" d="M 49.5,178.5 C 49.6646,181.518 49.498,184.518 49,187.5C 48.6174,188.056 48.1174,188.389 47.5,188.5C 47.5488,184.922 48.2154,181.589 49.5,178.5 Z"/></g>
<g><path style="opacity:1" fill="#f69228" d="M 303.5,168.5 C 307.648,168.453 309.148,170.453 308,174.5C 289.164,192.832 270.997,211.498 253.5,230.5C 249.5,232.5 246.5,235.5 244.5,239.5C 242.839,240.797 241.172,242.13 239.5,243.5C 235.817,246.185 232.817,249.518 230.5,253.5C 229.5,254.167 228.5,254.833 227.5,255.5C 225.5,256.167 224.167,257.5 223.5,259.5C 223.631,260.239 223.464,260.906 223,261.5C 210.151,273.502 197.651,285.836 185.5,298.5C 185.5,299.167 185.167,299.5 184.5,299.5C 182.405,298.588 180.405,297.421 178.5,296C 172.333,288.5 165.5,281.667 158,275.5C 157.5,274 157,272.5 156.5,271C 167.569,257.061 179.236,243.561 191.5,230.5C 194.833,229.167 197.167,226.833 198.5,223.5C 213.615,208.147 229.948,194.48 247.5,182.5C 249.517,181.471 251.517,180.471 253.5,179.5C 256.578,179.413 258.911,178.08 260.5,175.5C 266.407,172.31 272.74,170.31 279.5,169.5C 287.483,168.834 295.483,168.501 303.5,168.5 Z"/></g>
<g><path style="opacity:1" fill="#686868" d="M 302.5,225.5 C 270.415,256.752 238.749,288.585 207.5,321C 205.24,321.044 203.24,320.211 201.5,318.5C 197.314,314.149 193.314,309.649 189.5,305C 191.041,303.629 192.375,302.129 193.5,300.5C 233.826,260.007 273.993,219.34 314,178.5C 316,180.5 318,182.5 320,184.5C 320.632,190.214 320.299,195.881 319,201.5C 314.221,210.079 308.721,218.079 302.5,225.5 Z"/></g>
<g><path style="opacity:1" fill="#f19f77" d="M 378.5,191.5 C 376.967,193.245 374.967,194.245 372.5,194.5C 374.033,192.755 376.033,191.755 378.5,191.5 Z"/></g>
<g><path style="opacity:1" fill="#ec764a" d="M 330.5,191.5 C 335.858,193.381 341.191,195.048 346.5,196.5C 341.13,196.608 335.797,196.275 330.5,195.5C 330.5,194.167 330.5,192.833 330.5,191.5 Z"/></g>
<g><path style="opacity:1" fill="#f6bea7" d="M 330.5,191.5 C 329.5,191.5 328.5,191.5 327.5,191.5C 327.844,196.122 327.177,200.455 325.5,204.5C 326.164,199.527 326.497,194.527 326.5,189.5C 328.38,189.229 329.713,189.896 330.5,191.5 Z"/></g>
<g><path style="opacity:1" fill="#eb8b66" d="M 367.5,195.5 C 363.797,197.055 359.797,197.722 355.5,197.5C 352.314,197.498 349.314,197.165 346.5,196.5C 353.524,196.565 360.524,196.232 367.5,195.5 Z"/></g>
<g><path style="opacity:1" fill="#fdfdfd" d="M 44.5,212.5 C 44.5,214.833 44.5,217.167 44.5,219.5C 38.1667,219.5 31.8333,219.5 25.5,219.5C 25.5,212.833 25.5,206.167 25.5,199.5C 31.4254,199.808 37.2588,199.475 43,198.5C 44.4366,202.972 44.9366,207.639 44.5,212.5 Z"/></g>
<g><path style="opacity:1" fill="#fefefe" d="M 25.5,219.5 C 25.5,226.167 25.5,232.833 25.5,239.5C 18.8333,239.5 12.1667,239.5 5.5,239.5C 5.17033,233.132 5.50367,226.798 6.5,220.5C 12.7734,219.54 19.1067,219.207 25.5,219.5 Z"/></g>
<g><path style="opacity:1" fill="#efebea" d="M 44.5,212.5 C 44.8333,212.5 45.1667,212.5 45.5,212.5C 45.5,222.5 45.5,232.5 45.5,242.5C 45.5,242.833 45.5,243.167 45.5,243.5C 44.5655,242.432 44.2322,241.099 44.5,239.5C 38.1667,239.5 31.8333,239.5 25.5,239.5C 25.5,232.833 25.5,226.167 25.5,219.5C 31.8333,219.5 38.1667,219.5 44.5,219.5C 44.5,217.167 44.5,214.833 44.5,212.5 Z"/></g>
<g><path style="opacity:1" fill="#df683f" d="M 487.5,177.5 C 488.79,182.113 489.79,186.78 490.5,191.5C 491.771,209.651 491.771,227.651 490.5,245.5C 491.18,222.728 490.18,200.061 487.5,177.5 Z"/></g>
<g><path style="opacity:1" fill="#f3ba8a" d="M 198.5,223.5 C 197.167,226.833 194.833,229.167 191.5,230.5C 193.5,227.833 195.833,225.5 198.5,223.5 Z"/></g>
<g><path style="opacity:1" fill="#f9ceac" d="M 253.5,230.5 C 250.833,233.833 247.833,236.833 244.5,239.5C 246.5,235.5 249.5,232.5 253.5,230.5 Z"/></g>
<g><path style="opacity:1" fill="#f6be94" d="M 239.5,243.5 C 237.212,247.456 234.212,250.789 230.5,253.5C 232.817,249.518 235.817,246.185 239.5,243.5 Z"/></g>
<g><path style="opacity:1" fill="#e9b9a5" d="M 45.5,242.5 C 47.0538,246.567 47.7204,250.9 47.5,255.5C 45.8643,251.79 45.1977,247.79 45.5,243.5C 45.5,243.167 45.5,242.833 45.5,242.5 Z"/></g>
<g><path style="opacity:1" fill="#f7ece6" d="M 490.5,191.5 C 492.16,210.149 493.16,229.149 493.5,248.5C 494.333,232.177 494.833,215.844 495,199.5C 495.169,213.006 495.669,226.34 496.5,239.5C 496.5,246.167 496.5,252.833 496.5,259.5C 494.5,259.5 492.5,259.5 490.5,259.5C 490.976,263.378 489.976,266.712 487.5,269.5C 489.147,261.579 490.147,253.579 490.5,245.5C 491.771,227.651 491.771,209.651 490.5,191.5 Z"/></g>
<g><path style="opacity:1" fill="#fbf5ee" d="M 255.5,170.5 C 255.577,171.75 256.244,172.583 257.5,173C 256.207,173.49 254.873,173.657 253.5,173.5C 253.67,174.822 253.337,175.989 252.5,177C 249.202,177.487 246.202,178.653 243.5,180.5C 244.577,181.705 245.91,182.372 247.5,182.5C 229.948,194.48 213.615,208.147 198.5,223.5C 195.833,225.5 193.5,227.833 191.5,230.5C 179.236,243.561 167.569,257.061 156.5,271C 157,272.5 157.5,274 158,275.5C 165.5,281.667 172.333,288.5 178.5,296C 180.405,297.421 182.405,298.588 184.5,299.5C 183.048,300.302 181.382,300.802 179.5,301C 180.308,301.308 180.975,301.808 181.5,302.5C 179.563,304.216 177.563,304.549 175.5,303.5C 168.067,293.731 159.401,285.398 149.5,278.5C 139.161,289.173 128.827,299.839 118.5,310.5C 119.333,310.833 120.167,311.167 121,311.5C 130.408,310.328 139.575,308.662 148.5,306.5C 150.167,306.5 151.833,306.5 153.5,306.5C 150.471,308.339 147.138,309.673 143.5,310.5C 143.667,310.833 143.833,311.167 144,311.5C 149.305,312.265 153.805,312.265 157.5,311.5C 156.167,312.167 154.833,312.833 153.5,313.5C 148.547,314.411 143.547,315.078 138.5,315.5C 129.891,315.947 121.557,317.28 113.5,319.5C 109.291,319.841 105.125,320.508 101,321.5C 100.167,321.167 99.3333,320.833 98.5,320.5C 112.452,306.048 126.618,291.714 141,277.5C 165.07,246.762 191.903,218.595 221.5,193C 232.39,184.729 243.723,177.229 255.5,170.5 Z"/></g>
<g><path style="opacity:1" fill="#ebac6b" d="M 227.5,255.5 C 227.043,257.773 225.71,259.106 223.5,259.5C 224.167,257.5 225.5,256.167 227.5,255.5 Z"/></g>
<g><path style="opacity:1" fill="#e67646" d="M 307.5,252.5 C 307.799,254.604 307.466,256.604 306.5,258.5C 303.696,261.194 301.03,263.861 298.5,266.5C 301.008,261.476 304.008,256.809 307.5,252.5 Z"/></g>
<g><path style="opacity:1" fill="#f15d28" d="M 149.5,278.5 C 159.401,285.398 168.067,293.731 175.5,303.5C 174.833,303.5 174.167,303.5 173.5,303.5C 166.92,303.74 160.587,304.74 154.5,306.5C 154.167,306.5 153.833,306.5 153.5,306.5C 151.833,306.5 150.167,306.5 148.5,306.5C 141.535,305.511 134.535,304.677 127.5,304C 129.439,303.092 130.439,301.592 130.5,299.5C 131.93,299.579 133.264,299.246 134.5,298.5C 135.5,296.833 136.833,295.5 138.5,294.5C 137.466,291.943 138.466,290.609 141.5,290.5C 141.537,286.775 143.204,285.442 146.5,286.5C 150.397,285.693 151.063,284.026 148.5,281.5C 149.127,280.583 149.461,279.583 149.5,278.5 Z"/></g>
<g><path style="opacity:1" fill="#9b9b9a" d="M 220.5,337.5 C 217.871,334.369 215.038,331.369 212,328.5C 211.333,327.833 211.333,327.167 212,326.5C 242.755,294.913 273.589,263.579 304.5,232.5C 307.506,229.326 310.339,225.993 313,222.5C 313.167,223 313.333,223.5 313.5,224C 310.909,230.683 307.909,237.183 304.5,243.5C 297.628,255.214 290.128,266.547 282,277.5C 263.85,298.791 244.35,318.625 223.5,337C 222.552,337.483 221.552,337.649 220.5,337.5 Z"/></g>
<g><path style="opacity:1" fill="#fad0bd" d="M 484.5,282.5 C 484.064,288.326 482.897,293.993 481,299.5C 480.768,298.263 480.268,297.263 479.5,296.5C 480.393,291.483 482.06,286.817 484.5,282.5 Z"/></g>
<g><path style="opacity:1" fill="#f5f4f4" d="M 25.5,59.5 C 19.1067,59.2071 12.7734,59.5404 6.5,60.5C 5.50367,66.7985 5.17033,73.1318 5.5,79.5C 12.1667,79.5 18.8333,79.5 25.5,79.5C 25.5,86.1667 25.5,92.8333 25.5,99.5C 32.1667,99.5 38.8333,99.5 45.5,99.5C 45.5,106.167 45.5,112.833 45.5,119.5C 38.8333,119.5 32.1667,119.5 25.5,119.5C 25.5,126.167 25.5,132.833 25.5,139.5C 19.1067,139.207 12.7734,139.54 6.5,140.5C 5.50367,146.798 5.17033,153.132 5.5,159.5C 12.1667,159.5 18.8333,159.5 25.5,159.5C 32.1667,159.5 38.8333,159.5 45.5,159.5C 46.8333,159.5 48.1667,159.5 49.5,159.5C 49.6036,161.703 50.2702,163.703 51.5,165.5C 51.5,166.833 51.5,168.167 51.5,169.5C 50.5826,172.417 49.916,175.417 49.5,178.5C 48.2154,181.589 47.5488,184.922 47.5,188.5C 45.9843,196.378 45.3176,204.378 45.5,212.5C 45.1667,212.5 44.8333,212.5 44.5,212.5C 44.9366,207.639 44.4366,202.972 43,198.5C 37.2588,199.475 31.4254,199.808 25.5,199.5C 25.5,206.167 25.5,212.833 25.5,219.5C 19.1067,219.207 12.7734,219.54 6.5,220.5C 5.50367,226.798 5.17033,233.132 5.5,239.5C 12.1667,239.5 18.8333,239.5 25.5,239.5C 31.8333,239.5 38.1667,239.5 44.5,239.5C 44.2322,241.099 44.5655,242.432 45.5,243.5C 45.1977,247.79 45.8643,251.79 47.5,255.5C 52.4583,288.071 63.7917,318.071 81.5,345.5C 82.4486,347.777 83.7819,349.777 85.5,351.5C 92.0602,360.243 99.0602,368.743 106.5,377C 108.435,376.942 110.102,376.109 111.5,374.5C 110.645,376.787 110.478,379.12 111,381.5C 110.632,380.09 109.799,379.09 108.5,378.5C 101.167,379.833 93.8333,379.833 86.5,378.5C 85.5037,372.202 85.1703,365.868 85.5,359.5C 78.8333,359.5 72.1667,359.5 65.5,359.5C 58.8333,359.5 52.1667,359.5 45.5,359.5C 38.8333,359.5 32.1667,359.5 25.5,359.5C 25.5,366.167 25.5,372.833 25.5,379.5C 19.1067,379.207 12.7734,379.54 6.5,380.5C 5.50367,386.798 5.17033,393.132 5.5,399.5C 12.1667,399.5 18.8333,399.5 25.5,399.5C 25.5,406.167 25.5,412.833 25.5,419.5C 32.1667,419.5 38.8333,419.5 45.5,419.5C 45.3337,426.175 45.5004,432.842 46,439.5C 48.1054,436.973 50.4387,434.64 53,432.5C 51.5691,436.124 49.0691,439.124 45.5,441.5C 39.0495,439.593 32.3828,438.927 25.5,439.5C 25.5,446.167 25.5,452.833 25.5,459.5C 19.1067,459.793 12.7734,459.46 6.5,458.5C 5.50367,452.202 5.17033,445.868 5.5,439.5C 3.5,439.5 1.5,439.5 -0.5,439.5C -0.5,312.833 -0.5,186.167 -0.5,59.5C 1.5,59.5 3.5,59.5 5.5,59.5C 5.5,52.8333 5.5,46.1667 5.5,39.5C 12.1667,39.5 18.8333,39.5 25.5,39.5C 25.5,46.1667 25.5,52.8333 25.5,59.5 Z"/></g>
<g><path style="opacity:1" fill="#fefefe" d="M 7.5,299.5 C 13.5,299.5 19.5,299.5 25.5,299.5C 25.5,306.167 25.5,312.833 25.5,319.5C 18.8333,319.5 12.1667,319.5 5.5,319.5C 4.93408,312.549 5.60075,305.882 7.5,299.5 Z"/></g>
<g><path style="opacity:1" fill="#ec6635" d="M 149.5,278.5 C 149.461,279.583 149.127,280.583 148.5,281.5C 151.063,284.026 150.397,285.693 146.5,286.5C 143.204,285.442 141.537,286.775 141.5,290.5C 138.466,290.609 137.466,291.943 138.5,294.5C 136.833,295.5 135.5,296.833 134.5,298.5C 133.264,299.246 131.93,299.579 130.5,299.5C 130.439,301.592 129.439,303.092 127.5,304C 134.535,304.677 141.535,305.511 148.5,306.5C 139.575,308.662 130.408,310.328 121,311.5C 120.167,311.167 119.333,310.833 118.5,310.5C 128.827,299.839 139.161,289.173 149.5,278.5 Z"/></g>
<g><path style="opacity:1" fill="#f8cdba" d="M 173.5,303.5 C 167.48,305.669 161.147,306.669 154.5,306.5C 160.587,304.74 166.92,303.74 173.5,303.5 Z"/></g>
<g><path style="opacity:1" fill="#f1b697" d="M 157.5,311.5 C 159.167,311.5 160.833,311.5 162.5,311.5C 159.829,313.118 156.829,313.785 153.5,313.5C 154.833,312.833 156.167,312.167 157.5,311.5 Z"/></g>
<g><path style="opacity:1" fill="#eba883" d="M 138.5,315.5 C 130.414,317.562 122.081,318.895 113.5,319.5C 121.557,317.28 129.891,315.947 138.5,315.5 Z"/></g>
<g><path style="opacity:1" fill="#fce6d1" d="M 146.5,338.5 C 154.129,329.703 162.296,321.37 171,313.5C 171.167,313.167 171.333,312.833 171.5,312.5C 170.311,311.571 168.978,311.238 167.5,311.5C 173.678,307.832 175.345,309.165 172.5,315.5C 170.578,316.711 168.745,318.044 167,319.5C 165.781,323.892 162.948,326.226 158.5,326.5C 158.649,327.552 158.483,328.552 158,329.5C 157.667,329.167 157.333,328.833 157,328.5C 154.675,331.835 152.175,335.001 149.5,338C 148.552,338.483 147.552,338.649 146.5,338.5 Z"/></g>
<g><path style="opacity:1" fill="#ee9d7b" d="M 468.5,323.5 C 467.193,326.78 465.527,329.78 463.5,332.5C 463.94,328.748 465.607,325.748 468.5,323.5 Z"/></g>
<g><path style="opacity:1" fill="#9a9a9a" d="M 212.5,338.5 C 213.23,339.712 214.23,340.712 215.5,341.5C 214.167,343.167 212.833,344.833 211.5,346.5C 190.344,362.576 168.677,377.909 146.5,392.5C 126.731,403.22 107.064,414.22 87.5,425.5C 91.2519,439.104 94.4186,452.77 97,466.5C 98.1679,471.482 98.8345,476.482 99,481.5C 85.3333,467.833 71.6667,454.167 58,440.5C 57.2506,439.365 57.4173,438.365 58.5,437.5C 90.5384,405.298 122.205,373.131 153.5,341C 170.653,336.836 187.986,333.836 205.5,332C 207.677,334.344 210.01,336.511 212.5,338.5 Z"/></g>
<g><path style="opacity:1" fill="#f0a689" d="M 81.5,345.5 C 84.0442,346.708 85.3775,348.708 85.5,351.5C 83.7819,349.777 82.4486,347.777 81.5,345.5 Z"/></g>
<g><path style="opacity:1" fill="#facfb4" d="M 142.5,342.5 C 140.518,346.146 137.851,349.146 134.5,351.5C 136.43,347.9 139.097,344.9 142.5,342.5 Z"/></g>
<g><path style="opacity:1" fill="#efedec" d="M 455.5,345.5 C 455.334,350.392 454.667,355.059 453.5,359.5C 457.5,359.5 461.5,359.5 465.5,359.5C 465.5,366.167 465.5,372.833 465.5,379.5C 459.107,379.793 452.773,379.46 446.5,378.5C 445.511,374.893 445.177,371.226 445.5,367.5C 443.5,367.5 441.5,367.5 439.5,367.5C 444.657,359.991 449.991,352.657 455.5,345.5 Z"/></g>
<g><path style="opacity:1" fill="#f1aa8c" d="M 430.5,377.5 C 430.167,378.167 429.833,378.833 429.5,379.5C 427.833,380.833 426.167,382.167 424.5,383.5C 425.5,380.5 427.5,378.5 430.5,377.5 Z"/></g>
<g><path style="opacity:1" fill="#fefefe" d="M 25.5,379.5 C 25.5,386.167 25.5,392.833 25.5,399.5C 18.8333,399.5 12.1667,399.5 5.5,399.5C 5.17033,393.132 5.50367,386.798 6.5,380.5C 12.7734,379.54 19.1067,379.207 25.5,379.5 Z"/></g>
<g><path style="opacity:1" fill="#eeeeee" d="M 25.5,379.5 C 32.1667,379.5 38.8333,379.5 45.5,379.5C 45.5,386.167 45.5,392.833 45.5,399.5C 38.8333,399.5 32.1667,399.5 25.5,399.5C 25.5,392.833 25.5,386.167 25.5,379.5 Z"/></g>
<g><path style="opacity:1" fill="#f8f8f8" d="M 496.5,259.5 C 496.5,346.167 496.5,432.833 496.5,519.5C 479.5,519.5 462.5,519.5 445.5,519.5C 445.5,512.833 445.5,506.167 445.5,499.5C 438.833,499.5 432.167,499.5 425.5,499.5C 425.5,492.833 425.5,486.167 425.5,479.5C 432.167,479.5 438.833,479.5 445.5,479.5C 445.5,472.833 445.5,466.167 445.5,459.5C 438.833,459.5 432.167,459.5 425.5,459.5C 425.5,452.833 425.5,446.167 425.5,439.5C 432.167,439.5 438.833,439.5 445.5,439.5C 445.5,432.833 445.5,426.167 445.5,419.5C 438.833,419.5 432.167,419.5 425.5,419.5C 425.5,412.833 425.5,406.167 425.5,399.5C 432.167,399.5 438.833,399.5 445.5,399.5C 445.5,392.833 445.5,386.167 445.5,379.5C 440.167,379.5 434.833,379.5 429.5,379.5C 429.833,378.833 430.167,378.167 430.5,377.5C 433.041,373.748 436.041,370.415 439.5,367.5C 441.5,367.5 443.5,367.5 445.5,367.5C 445.177,371.226 445.511,374.893 446.5,378.5C 452.773,379.46 459.107,379.793 465.5,379.5C 465.5,372.833 465.5,366.167 465.5,359.5C 461.5,359.5 457.5,359.5 453.5,359.5C 454.667,355.059 455.334,350.392 455.5,345.5C 458.437,341.285 461.103,336.952 463.5,332.5C 465.527,329.78 467.193,326.78 468.5,323.5C 472.747,314.766 476.413,305.766 479.5,296.5C 480.268,297.263 480.768,298.263 481,299.5C 482.897,293.993 484.064,288.326 484.5,282.5C 484.882,278.022 485.882,273.689 487.5,269.5C 489.976,266.712 490.976,263.378 490.5,259.5C 492.5,259.5 494.5,259.5 496.5,259.5 Z"/></g>
<g><path style="opacity:1" fill="#f3f2f1" d="M 429.5,379.5 C 434.833,379.5 440.167,379.5 445.5,379.5C 445.5,386.167 445.5,392.833 445.5,399.5C 438.833,399.5 432.167,399.5 425.5,399.5C 425.5,406.167 425.5,412.833 425.5,419.5C 432.167,419.5 438.833,419.5 445.5,419.5C 445.5,426.167 445.5,432.833 445.5,439.5C 438.833,439.5 432.167,439.5 425.5,439.5C 425.5,446.167 425.5,452.833 425.5,459.5C 419.107,459.793 412.773,459.46 406.5,458.5C 405.504,452.202 405.17,445.868 405.5,439.5C 398.833,439.5 392.167,439.5 385.5,439.5C 385.5,446.167 385.5,452.833 385.5,459.5C 379.107,459.793 372.773,459.46 366.5,458.5C 365.504,452.202 365.17,445.868 365.5,439.5C 358.833,439.5 352.167,439.5 345.5,439.5C 345.5,446.167 345.5,452.833 345.5,459.5C 339.107,459.793 332.773,459.46 326.5,458.5C 325.504,452.537 325.171,446.537 325.5,440.5C 323.5,440.5 321.5,440.5 319.5,440.5C 326.356,438.557 333.356,436.724 340.5,435C 371.972,423.116 399.972,405.95 424.5,383.5C 426.167,382.167 427.833,380.833 429.5,379.5 Z"/></g>
<g><path style="opacity:1" fill="#fdfcfa" d="M 164.5,421.5 C 171.616,424.314 178.616,427.314 185.5,430.5C 185.5,433.5 185.5,436.5 185.5,439.5C 178.833,439.5 172.167,439.5 165.5,439.5C 165.789,433.409 165.455,427.409 164.5,421.5 Z"/></g>
<g><path style="opacity:1" fill="#ed7c5a" d="M 207.5,437.5 C 216.291,438.091 224.625,440.091 232.5,443.5C 223.761,442.663 215.428,440.663 207.5,437.5 Z"/></g>
<g><path style="opacity:1" fill="#edeeed" d="M 165.5,439.5 C 172.167,439.5 178.833,439.5 185.5,439.5C 185.5,446.167 185.5,452.833 185.5,459.5C 179.107,459.793 172.773,459.46 166.5,458.5C 165.504,452.202 165.17,445.868 165.5,439.5 Z"/></g>
<g><path style="opacity:1" fill="#ededed" d="M 445.5,439.5 C 452.167,439.5 458.833,439.5 465.5,439.5C 465.5,446.167 465.5,452.833 465.5,459.5C 459.107,459.793 452.773,459.46 446.5,458.5C 445.504,452.202 445.17,445.868 445.5,439.5 Z"/></g>
<g><path style="opacity:1" fill="#f9b9a0" d="M 319.5,440.5 C 319.082,441.222 318.416,441.722 317.5,442C 312.863,442.829 308.196,443.329 303.5,443.5C 308.572,441.754 313.905,440.754 319.5,440.5 Z"/></g>
<g><path style="opacity:1" fill="#f39d88" d="M 303.5,443.5 C 303.5,443.833 303.5,444.167 303.5,444.5C 299.176,444.927 294.842,445.261 290.5,445.5C 294.545,443.823 298.878,443.156 303.5,443.5 Z"/></g>
<g><path style="opacity:1" fill="#e89b81" d="M 241.5,444.5 C 254.144,445.374 266.811,445.708 279.5,445.5C 279.5,445.833 279.5,446.167 279.5,446.5C 278.833,446.5 278.167,446.5 277.5,446.5C 266.833,446.5 256.167,446.5 245.5,446.5C 244.005,446.011 242.671,445.345 241.5,444.5 Z"/></g>
<g><path style="opacity:1" fill="#efedec" d="M 185.5,430.5 C 192.558,433.63 199.891,435.963 207.5,437.5C 215.428,440.663 223.761,442.663 232.5,443.5C 235.059,443.198 237.393,443.532 239.5,444.5C 233.928,443.99 228.595,444.823 223.5,447C 225.389,450.836 226.055,455.003 225.5,459.5C 219.107,459.793 212.773,459.46 206.5,458.5C 205.504,452.202 205.17,445.868 205.5,439.5C 198.833,439.5 192.167,439.5 185.5,439.5C 185.5,436.5 185.5,433.5 185.5,430.5 Z"/></g>
<g><path style="opacity:1" fill="#eeeceb" d="M 303.5,444.5 C 305.258,449.272 305.925,454.272 305.5,459.5C 299.107,459.793 292.773,459.46 286.5,458.5C 285.509,454.555 285.176,450.555 285.5,446.5C 283.5,446.5 281.5,446.5 279.5,446.5C 279.5,446.167 279.5,445.833 279.5,445.5C 283.167,445.5 286.833,445.5 290.5,445.5C 294.842,445.261 299.176,444.927 303.5,444.5 Z"/></g>
<g><path style="opacity:1" fill="#eeeded" d="M 245.5,446.5 C 256.167,446.5 266.833,446.5 277.5,446.5C 273.702,447.483 269.702,447.817 265.5,447.5C 265.5,451.5 265.5,455.5 265.5,459.5C 259.107,459.793 252.773,459.46 246.5,458.5C 245.509,454.555 245.176,450.555 245.5,446.5 Z"/></g>
<g><path style="opacity:1" fill="#eeeeee" d="M 185.5,459.5 C 192.167,459.5 198.833,459.5 205.5,459.5C 205.5,466.167 205.5,472.833 205.5,479.5C 198.833,479.5 192.167,479.5 185.5,479.5C 185.5,472.833 185.5,466.167 185.5,459.5 Z"/></g>
<g><path style="opacity:1" fill="#fefefe" d="M 185.5,439.5 C 192.167,439.5 198.833,439.5 205.5,439.5C 205.17,445.868 205.504,452.202 206.5,458.5C 212.773,459.46 219.107,459.793 225.5,459.5C 225.5,466.167 225.5,472.833 225.5,479.5C 218.833,479.5 212.167,479.5 205.5,479.5C 205.5,472.833 205.5,466.167 205.5,459.5C 198.833,459.5 192.167,459.5 185.5,459.5C 185.5,452.833 185.5,446.167 185.5,439.5 Z"/></g>
<g><path style="opacity:1" fill="#eeeeee" d="M 225.5,459.5 C 232.167,459.5 238.833,459.5 245.5,459.5C 245.5,466.167 245.5,472.833 245.5,479.5C 238.833,479.5 232.167,479.5 225.5,479.5C 225.5,472.833 225.5,466.167 225.5,459.5 Z"/></g>
<g><path style="opacity:1" fill="#fefefe" d="M 239.5,444.5 C 240.167,444.5 240.833,444.5 241.5,444.5C 242.671,445.345 244.005,446.011 245.5,446.5C 245.176,450.555 245.509,454.555 246.5,458.5C 252.773,459.46 259.107,459.793 265.5,459.5C 265.5,466.167 265.5,472.833 265.5,479.5C 258.833,479.5 252.167,479.5 245.5,479.5C 245.5,472.833 245.5,466.167 245.5,459.5C 238.833,459.5 232.167,459.5 225.5,459.5C 226.055,455.003 225.389,450.836 223.5,447C 228.595,444.823 233.928,443.99 239.5,444.5 Z"/></g>
<g><path style="opacity:1" fill="#eeeeee" d="M 265.5,459.5 C 272.167,459.5 278.833,459.5 285.5,459.5C 285.5,466.167 285.5,472.833 285.5,479.5C 278.833,479.5 272.167,479.5 265.5,479.5C 265.5,472.833 265.5,466.167 265.5,459.5 Z"/></g>
<g><path style="opacity:1" fill="#fefefe" d="M 277.5,446.5 C 278.167,446.5 278.833,446.5 279.5,446.5C 281.5,446.5 283.5,446.5 285.5,446.5C 285.176,450.555 285.509,454.555 286.5,458.5C 292.773,459.46 299.107,459.793 305.5,459.5C 305.5,466.167 305.5,472.833 305.5,479.5C 298.833,479.5 292.167,479.5 285.5,479.5C 285.5,472.833 285.5,466.167 285.5,459.5C 278.833,459.5 272.167,459.5 265.5,459.5C 265.5,455.5 265.5,451.5 265.5,447.5C 269.702,447.817 273.702,447.483 277.5,446.5 Z"/></g>
<g><path style="opacity:1" fill="#eeeeee" d="M 305.5,459.5 C 312.167,459.5 318.833,459.5 325.5,459.5C 325.5,466.167 325.5,472.833 325.5,479.5C 318.833,479.5 312.167,479.5 305.5,479.5C 305.5,472.833 305.5,466.167 305.5,459.5 Z"/></g>
<g><path style="opacity:1" fill="#fefefe" d="M 319.5,440.5 C 321.5,440.5 323.5,440.5 325.5,440.5C 325.171,446.537 325.504,452.537 326.5,458.5C 332.773,459.46 339.107,459.793 345.5,459.5C 345.5,466.167 345.5,472.833 345.5,479.5C 338.833,479.5 332.167,479.5 325.5,479.5C 325.5,472.833 325.5,466.167 325.5,459.5C 318.833,459.5 312.167,459.5 305.5,459.5C 305.925,454.272 305.258,449.272 303.5,444.5C 303.5,444.167 303.5,443.833 303.5,443.5C 308.196,443.329 312.863,442.829 317.5,442C 318.416,441.722 319.082,441.222 319.5,440.5 Z"/></g>
<g><path style="opacity:1" fill="#eeeeee" d="M 345.5,459.5 C 352.167,459.5 358.833,459.5 365.5,459.5C 365.5,466.167 365.5,472.833 365.5,479.5C 358.833,479.5 352.167,479.5 345.5,479.5C 345.5,472.833 345.5,466.167 345.5,459.5 Z"/></g>
<g><path style="opacity:1" fill="#fefefe" d="M 385.5,459.5 C 385.5,466.167 385.5,472.833 385.5,479.5C 378.833,479.5 372.167,479.5 365.5,479.5C 365.5,472.833 365.5,466.167 365.5,459.5C 358.833,459.5 352.167,459.5 345.5,459.5C 345.5,452.833 345.5,446.167 345.5,439.5C 352.167,439.5 358.833,439.5 365.5,439.5C 365.17,445.868 365.504,452.202 366.5,458.5C 372.773,459.46 379.107,459.793 385.5,459.5 Z"/></g>
<g><path style="opacity:1" fill="#eeeeee" d="M 385.5,459.5 C 392.167,459.5 398.833,459.5 405.5,459.5C 405.5,466.167 405.5,472.833 405.5,479.5C 398.833,479.5 392.167,479.5 385.5,479.5C 385.5,472.833 385.5,466.167 385.5,459.5 Z"/></g>
<g><path style="opacity:1" fill="#fefefe" d="M 425.5,459.5 C 425.5,466.167 425.5,472.833 425.5,479.5C 418.833,479.5 412.167,479.5 405.5,479.5C 405.5,472.833 405.5,466.167 405.5,459.5C 398.833,459.5 392.167,459.5 385.5,459.5C 385.5,452.833 385.5,446.167 385.5,439.5C 392.167,439.5 398.833,439.5 405.5,439.5C 405.17,445.868 405.504,452.202 406.5,458.5C 412.773,459.46 419.107,459.793 425.5,459.5 Z"/></g>
<g><path style="opacity:1" fill="#eeeeee" d="M 425.5,459.5 C 432.167,459.5 438.833,459.5 445.5,459.5C 445.5,466.167 445.5,472.833 445.5,479.5C 438.833,479.5 432.167,479.5 425.5,479.5C 425.5,472.833 425.5,466.167 425.5,459.5 Z"/></g>
<g><path style="opacity:1" fill="#f15e29" d="M 93.5,485.5 C 94.1408,486.482 94.8075,487.482 95.5,488.5C 91.1299,489.861 86.7966,490.861 82.5,491.5C 65.5748,493.914 48.5748,495.914 31.5,497.5C 28.8127,497.336 26.146,497.503 23.5,498C 22.5842,498.278 21.9175,498.778 21.5,499.5C 14.1827,500.331 6.84936,500.998 -0.5,501.5C -0.5,499.833 -0.5,498.167 -0.5,496.5C 7.60881,489.601 15.2755,482.268 22.5,474.5C 26.1002,472.57 29.1002,469.903 31.5,466.5C 37.405,458.925 44.0717,451.925 51.5,445.5C 56.6773,449.516 61.6773,453.682 66.5,458C 75.3674,467.367 84.3674,476.533 93.5,485.5 Z"/></g>
<g><path style="opacity:1" fill="#f9f9f7" d="M 302.5,225.5 C 303.5,225.5 304.5,225.5 305.5,225.5C 305.007,227.806 304.674,230.139 304.5,232.5C 273.589,263.579 242.755,294.913 212,326.5C 211.333,327.167 211.333,327.833 212,328.5C 215.038,331.369 217.871,334.369 220.5,337.5C 220.582,339.252 219.749,340.252 218,340.5C 216.469,339.783 215.136,338.783 214,337.5C 213.235,337.57 212.735,337.903 212.5,338.5C 210.01,336.511 207.677,334.344 205.5,332C 187.986,333.836 170.653,336.836 153.5,341C 122.205,373.131 90.5384,405.298 58.5,437.5C 57.4173,438.365 57.2506,439.365 58,440.5C 71.6667,454.167 85.3333,467.833 99,481.5C 98.8345,476.482 98.1679,471.482 97,466.5C 94.4186,452.77 91.2519,439.104 87.5,425.5C 107.064,414.22 126.731,403.22 146.5,392.5C 147.718,393.161 149.051,393.828 150.5,394.5C 148.739,395.917 147.406,397.583 146.5,399.5C 143.933,401.156 141.266,402.822 138.5,404.5C 147.207,410.226 155.874,415.893 164.5,421.5C 165.455,427.409 165.789,433.409 165.5,439.5C 165.17,445.868 165.504,452.202 166.5,458.5C 172.773,459.46 179.107,459.793 185.5,459.5C 185.5,466.167 185.5,472.833 185.5,479.5C 178.833,479.5 172.167,479.5 165.5,479.5C 165.17,485.868 165.504,492.202 166.5,498.5C 172.773,499.46 179.107,499.793 185.5,499.5C 185.5,506.167 185.5,512.833 185.5,519.5C 165.5,519.5 145.5,519.5 125.5,519.5C 125.5,512.833 125.5,506.167 125.5,499.5C 120.352,500.074 115.518,499.407 111,497.5C 110.333,498.167 109.667,498.833 109,499.5C 107.667,498.167 106.333,496.833 105,495.5C 97.1123,496.584 88.9456,497.418 80.5,498C 81.7059,499.018 81.3726,499.518 79.5,499.5C 78.0143,499.103 76.5143,498.77 75,498.5C 68.5117,499.406 62.0117,500.239 55.5,501C 56.5,501.5 57.5,502 58.5,502.5C 60.7466,501.626 63.0799,501.292 65.5,501.5C 65.5,507.5 65.5,513.5 65.5,519.5C 43.5,519.5 21.5,519.5 -0.5,519.5C -0.5,513.5 -0.5,507.5 -0.5,501.5C 6.84936,500.998 14.1827,500.331 21.5,499.5C 25.0781,499.451 28.4115,498.785 31.5,497.5C 48.5748,495.914 65.5748,493.914 82.5,491.5C 87.2675,491.809 91.9342,491.309 96.5,490C 97.4872,487.448 96.4872,485.948 93.5,485.5C 84.3674,476.533 75.3674,467.367 66.5,458C 61.6773,453.682 56.6773,449.516 51.5,445.5C 44.0717,451.925 37.405,458.925 31.5,466.5C 27.8998,468.43 24.8998,471.097 22.5,474.5C 15.2755,482.268 7.60881,489.601 -0.5,496.5C -0.5,477.5 -0.5,458.5 -0.5,439.5C 1.5,439.5 3.5,439.5 5.5,439.5C 5.17033,445.868 5.50367,452.202 6.5,458.5C 12.7734,459.46 19.1067,459.793 25.5,459.5C 25.5,452.833 25.5,446.167 25.5,439.5C 32.3828,438.927 39.0495,439.593 45.5,441.5C 49.0691,439.124 51.5691,436.124 53,432.5C 50.4387,434.64 48.1054,436.973 46,439.5C 45.5004,432.842 45.3337,426.175 45.5,419.5C 38.8333,419.5 32.1667,419.5 25.5,419.5C 25.5,412.833 25.5,406.167 25.5,399.5C 32.1667,399.5 38.8333,399.5 45.5,399.5C 45.5,392.833 45.5,386.167 45.5,379.5C 38.8333,379.5 32.1667,379.5 25.5,379.5C 25.5,372.833 25.5,366.167 25.5,359.5C 32.1667,359.5 38.8333,359.5 45.5,359.5C 45.1703,365.868 45.5037,372.202 46.5,378.5C 52.7734,379.46 59.1067,379.793 65.5,379.5C 65.5,372.833 65.5,366.167 65.5,359.5C 72.1667,359.5 78.8333,359.5 85.5,359.5C 85.1703,365.868 85.5037,372.202 86.5,378.5C 93.8333,379.833 101.167,379.833 108.5,378.5C 109.799,379.09 110.632,380.09 111,381.5C 110.478,379.12 110.645,376.787 111.5,374.5C 118.602,367.16 125.602,359.66 132.5,352C 133.094,351.536 133.761,351.369 134.5,351.5C 137.851,349.146 140.518,346.146 142.5,342.5C 143.473,340.861 144.806,339.527 146.5,338.5C 147.552,338.649 148.552,338.483 149.5,338C 152.175,335.001 154.675,331.835 157,328.5C 157.333,328.833 157.667,329.167 158,329.5C 158.483,328.552 158.649,327.552 158.5,326.5C 162.948,326.226 165.781,323.892 167,319.5C 168.745,318.044 170.578,316.711 172.5,315.5C 175.345,309.165 173.678,307.832 167.5,311.5C 165.833,311.5 164.167,311.5 162.5,311.5C 160.833,311.5 159.167,311.5 157.5,311.5C 153.805,312.265 149.305,312.265 144,311.5C 143.833,311.167 143.667,310.833 143.5,310.5C 147.138,309.673 150.471,308.339 153.5,306.5C 153.833,306.5 154.167,306.5 154.5,306.5C 161.147,306.669 167.48,305.669 173.5,303.5C 174.167,303.5 174.833,303.5 175.5,303.5C 177.563,304.549 179.563,304.216 181.5,302.5C 180.975,301.808 180.308,301.308 179.5,301C 181.382,300.802 183.048,300.302 184.5,299.5C 185.167,299.5 185.5,299.167 185.5,298.5C 187.017,298.489 188.184,297.823 189,296.5C 190.307,298.192 191.807,299.525 193.5,300.5C 192.375,302.129 191.041,303.629 189.5,305C 193.314,309.649 197.314,314.149 201.5,318.5C 203.24,320.211 205.24,321.044 207.5,321C 238.749,288.585 270.415,256.752 302.5,225.5 Z"/></g>
<g><path style="opacity:1" fill="#e3804f" d="M 31.5,466.5 C 29.1002,469.903 26.1002,472.57 22.5,474.5C 24.8998,471.097 27.8998,468.43 31.5,466.5 Z"/></g>
<g><path style="opacity:1" fill="#eeeeee" d="M 145.5,459.5 C 152.167,459.5 158.833,459.5 165.5,459.5C 165.5,466.167 165.5,472.833 165.5,479.5C 158.833,479.5 152.167,479.5 145.5,479.5C 145.5,472.833 145.5,466.167 145.5,459.5 Z"/></g>
<g><path style="opacity:1" fill="#fefefe" d="M 145.5,459.5 C 145.5,466.167 145.5,472.833 145.5,479.5C 138.833,479.5 132.167,479.5 125.5,479.5C 125.17,473.132 125.504,466.798 126.5,460.5C 132.773,459.54 139.107,459.207 145.5,459.5 Z"/></g>
<g><path style="opacity:1" fill="#ededed" d="M 45.5,359.5 C 52.1667,359.5 58.8333,359.5 65.5,359.5C 65.5,366.167 65.5,372.833 65.5,379.5C 59.1067,379.793 52.7734,379.46 46.5,378.5C 45.5037,372.202 45.1703,365.868 45.5,359.5 Z"/></g>
<g><path style="opacity:1" fill="#6c6b6a" d="M 183.5,310.5 C 188.684,315.185 193.684,320.019 198.5,325C 187.832,327.057 177.165,329.223 166.5,331.5C 165.833,331.167 165.167,330.833 164.5,330.5C 170.876,323.633 177.21,316.967 183.5,310.5 Z"/></g>
<g><path style="opacity:1" fill="#ededed" d="M 165.5,479.5 C 172.167,479.5 178.833,479.5 185.5,479.5C 185.5,486.167 185.5,492.833 185.5,499.5C 179.107,499.793 172.773,499.46 166.5,498.5C 165.504,492.202 165.17,485.868 165.5,479.5 Z"/></g>
<g><path style="opacity:1" fill="#ededed" d="M 205.5,479.5 C 212.167,479.5 218.833,479.5 225.5,479.5C 225.5,486.167 225.5,492.833 225.5,499.5C 219.107,499.793 212.773,499.46 206.5,498.5C 205.504,492.202 205.17,485.868 205.5,479.5 Z"/></g>
<g><path style="opacity:1" fill="#ededed" d="M 245.5,479.5 C 252.167,479.5 258.833,479.5 265.5,479.5C 265.5,486.167 265.5,492.833 265.5,499.5C 259.107,499.793 252.773,499.46 246.5,498.5C 245.504,492.202 245.17,485.868 245.5,479.5 Z"/></g>
<g><path style="opacity:1" fill="#ededed" d="M 285.5,479.5 C 292.167,479.5 298.833,479.5 305.5,479.5C 305.5,486.167 305.5,492.833 305.5,499.5C 299.107,499.793 292.773,499.46 286.5,498.5C 285.504,492.202 285.17,485.868 285.5,479.5 Z"/></g>
<g><path style="opacity:1" fill="#ededed" d="M 325.5,479.5 C 332.167,479.5 338.833,479.5 345.5,479.5C 345.5,486.167 345.5,492.833 345.5,499.5C 339.107,499.793 332.773,499.46 326.5,498.5C 325.504,492.202 325.17,485.868 325.5,479.5 Z"/></g>
<g><path style="opacity:1" fill="#ededed" d="M 365.5,479.5 C 372.167,479.5 378.833,479.5 385.5,479.5C 385.5,486.167 385.5,492.833 385.5,499.5C 379.107,499.793 372.773,499.46 366.5,498.5C 365.504,492.202 365.17,485.868 365.5,479.5 Z"/></g>
<g><path style="opacity:1" fill="#ededed" d="M 405.5,479.5 C 412.167,479.5 418.833,479.5 425.5,479.5C 425.5,486.167 425.5,492.833 425.5,499.5C 419.107,499.793 412.773,499.46 406.5,498.5C 405.504,492.202 405.17,485.868 405.5,479.5 Z"/></g>
<g><path style="opacity:1" fill="#f2b08c" d="M 93.5,485.5 C 96.4872,485.948 97.4872,487.448 96.5,490C 91.9342,491.309 87.2675,491.809 82.5,491.5C 86.7966,490.861 91.1299,489.861 95.5,488.5C 94.8075,487.482 94.1408,486.482 93.5,485.5 Z"/></g>
<g><path style="opacity:1" fill="#ee9d79" d="M 31.5,497.5 C 28.4115,498.785 25.0781,499.451 21.5,499.5C 21.9175,498.778 22.5842,498.278 23.5,498C 26.146,497.503 28.8127,497.336 31.5,497.5 Z"/></g>
<g><path style="opacity:1" fill="#eeeeee" d="M 185.5,499.5 C 192.167,499.5 198.833,499.5 205.5,499.5C 205.5,506.167 205.5,512.833 205.5,519.5C 198.833,519.5 192.167,519.5 185.5,519.5C 185.5,512.833 185.5,506.167 185.5,499.5 Z"/></g>
<g><path style="opacity:1" fill="#fefefe" d="M 185.5,479.5 C 192.167,479.5 198.833,479.5 205.5,479.5C 205.17,485.868 205.504,492.202 206.5,498.5C 212.773,499.46 219.107,499.793 225.5,499.5C 225.5,506.167 225.5,512.833 225.5,519.5C 218.833,519.5 212.167,519.5 205.5,519.5C 205.5,512.833 205.5,506.167 205.5,499.5C 198.833,499.5 192.167,499.5 185.5,499.5C 185.5,492.833 185.5,486.167 185.5,479.5 Z"/></g>
<g><path style="opacity:1" fill="#eeeeee" d="M 225.5,499.5 C 232.167,499.5 238.833,499.5 245.5,499.5C 245.5,506.167 245.5,512.833 245.5,519.5C 238.833,519.5 232.167,519.5 225.5,519.5C 225.5,512.833 225.5,506.167 225.5,499.5 Z"/></g>
<g><path style="opacity:1" fill="#fefefe" d="M 225.5,479.5 C 232.167,479.5 238.833,479.5 245.5,479.5C 245.17,485.868 245.504,492.202 246.5,498.5C 252.773,499.46 259.107,499.793 265.5,499.5C 265.5,506.167 265.5,512.833 265.5,519.5C 258.833,519.5 252.167,519.5 245.5,519.5C 245.5,512.833 245.5,506.167 245.5,499.5C 238.833,499.5 232.167,499.5 225.5,499.5C 225.5,492.833 225.5,486.167 225.5,479.5 Z"/></g>
<g><path style="opacity:1" fill="#eeeeee" d="M 265.5,499.5 C 272.167,499.5 278.833,499.5 285.5,499.5C 285.5,506.167 285.5,512.833 285.5,519.5C 278.833,519.5 272.167,519.5 265.5,519.5C 265.5,512.833 265.5,506.167 265.5,499.5 Z"/></g>
<g><path style="opacity:1" fill="#fefefe" d="M 265.5,479.5 C 272.167,479.5 278.833,479.5 285.5,479.5C 285.17,485.868 285.504,492.202 286.5,498.5C 292.773,499.46 299.107,499.793 305.5,499.5C 305.5,506.167 305.5,512.833 305.5,519.5C 298.833,519.5 292.167,519.5 285.5,519.5C 285.5,512.833 285.5,506.167 285.5,499.5C 278.833,499.5 272.167,499.5 265.5,499.5C 265.5,492.833 265.5,486.167 265.5,479.5 Z"/></g>
<g><path style="opacity:1" fill="#eeeeee" d="M 305.5,499.5 C 312.167,499.5 318.833,499.5 325.5,499.5C 325.5,506.167 325.5,512.833 325.5,519.5C 318.833,519.5 312.167,519.5 305.5,519.5C 305.5,512.833 305.5,506.167 305.5,499.5 Z"/></g>
<g><path style="opacity:1" fill="#fefefe" d="M 305.5,479.5 C 312.167,479.5 318.833,479.5 325.5,479.5C 325.17,485.868 325.504,492.202 326.5,498.5C 332.773,499.46 339.107,499.793 345.5,499.5C 345.5,506.167 345.5,512.833 345.5,519.5C 338.833,519.5 332.167,519.5 325.5,519.5C 325.5,512.833 325.5,506.167 325.5,499.5C 318.833,499.5 312.167,499.5 305.5,499.5C 305.5,492.833 305.5,486.167 305.5,479.5 Z"/></g>
<g><path style="opacity:1" fill="#eeeeee" d="M 345.5,499.5 C 352.167,499.5 358.833,499.5 365.5,499.5C 365.5,506.167 365.5,512.833 365.5,519.5C 358.833,519.5 352.167,519.5 345.5,519.5C 345.5,512.833 345.5,506.167 345.5,499.5 Z"/></g>
<g><path style="opacity:1" fill="#fefefe" d="M 345.5,479.5 C 352.167,479.5 358.833,479.5 365.5,479.5C 365.17,485.868 365.504,492.202 366.5,498.5C 372.773,499.46 379.107,499.793 385.5,499.5C 385.5,506.167 385.5,512.833 385.5,519.5C 378.833,519.5 372.167,519.5 365.5,519.5C 365.5,512.833 365.5,506.167 365.5,499.5C 358.833,499.5 352.167,499.5 345.5,499.5C 345.5,492.833 345.5,486.167 345.5,479.5 Z"/></g>
<g><path style="opacity:1" fill="#eeeeee" d="M 385.5,499.5 C 392.167,499.5 398.833,499.5 405.5,499.5C 405.5,506.167 405.5,512.833 405.5,519.5C 398.833,519.5 392.167,519.5 385.5,519.5C 385.5,512.833 385.5,506.167 385.5,499.5 Z"/></g>
<g><path style="opacity:1" fill="#fefefe" d="M 385.5,479.5 C 392.167,479.5 398.833,479.5 405.5,479.5C 405.17,485.868 405.504,492.202 406.5,498.5C 412.773,499.46 419.107,499.793 425.5,499.5C 425.5,506.167 425.5,512.833 425.5,519.5C 418.833,519.5 412.167,519.5 405.5,519.5C 405.5,512.833 405.5,506.167 405.5,499.5C 398.833,499.5 392.167,499.5 385.5,499.5C 385.5,492.833 385.5,486.167 385.5,479.5 Z"/></g>
<g><path style="opacity:1" fill="#eeeeee" d="M 425.5,499.5 C 432.167,499.5 438.833,499.5 445.5,499.5C 445.5,506.167 445.5,512.833 445.5,519.5C 438.833,519.5 432.167,519.5 425.5,519.5C 425.5,512.833 425.5,506.167 425.5,499.5 Z"/></g>
<g><path style="opacity:1" fill="#eeeeed" d="M 125.5,519.5 C 118.833,519.5 112.167,519.5 105.5,519.5C 105.5,512.833 105.5,506.167 105.5,499.5C 98.8333,499.5 92.1667,499.5 85.5,499.5C 85.5,506.167 85.5,512.833 85.5,519.5C 78.8333,519.5 72.1667,519.5 65.5,519.5C 65.5,513.5 65.5,507.5 65.5,501.5C 63.0799,501.292 60.7466,501.626 58.5,502.5C 57.5,502 56.5,501.5 55.5,501C 62.0117,500.239 68.5117,499.406 75,498.5C 76.5143,498.77 78.0143,499.103 79.5,499.5C 81.3726,499.518 81.7059,499.018 80.5,498C 88.9456,497.418 97.1123,496.584 105,495.5C 106.333,496.833 107.667,498.167 109,499.5C 109.667,498.833 110.333,498.167 111,497.5C 115.518,499.407 120.352,500.074 125.5,499.5C 125.5,506.167 125.5,512.833 125.5,519.5 Z"/></g>
<g><path style="opacity:1" fill="#fefefe" d="M 105.5,519.5 C 98.8333,519.5 92.1667,519.5 85.5,519.5C 85.5,512.833 85.5,506.167 85.5,499.5C 92.1667,499.5 98.8333,499.5 105.5,499.5C 105.5,506.167 105.5,512.833 105.5,519.5 Z"/></g>
</svg>
